<mxfile host="app.diagrams.net" agent="Mozilla/5.0 (Windows NT 10.0; Win64; x64) AppleWebKit/537.36 (KHTML, like Gecko) Chrome/138.0.0.0 Safari/537.36" version="27.1.6">
  <diagram name="Página-1" id="fSYM8z84vHrLpdh59CZX">
    <mxGraphModel grid="1" page="1" gridSize="10" guides="1" tooltips="1" connect="1" arrows="1" fold="1" pageScale="1" pageWidth="827" pageHeight="1169" math="0" shadow="0">
      <root>
        <mxCell id="0" />
        <mxCell id="1" parent="0" />
        <mxCell id="OHCb3kpunpdSkLjku3Yf-1" value="CU046 Cargar contrato" style="swimlane;childLayout=stackLayout;resizeParent=1;resizeParentMax=0;startSize=20;horizontal=0;horizontalStack=1;" vertex="1" parent="1">
          <mxGeometry x="-150" y="-1000" width="950" height="710" as="geometry">
            <mxRectangle x="200" y="80" width="40" height="50" as="alternateBounds" />
          </mxGeometry>
        </mxCell>
        <mxCell id="OHCb3kpunpdSkLjku3Yf-2" style="edgeStyle=orthogonalEdgeStyle;rounded=0;orthogonalLoop=1;jettySize=auto;html=1;exitX=1;exitY=0.5;exitDx=0;exitDy=0;strokeColor=light-dark(#ff0000, #ededed);entryX=0.583;entryY=0;entryDx=0;entryDy=0;entryPerimeter=0;" edge="1" parent="OHCb3kpunpdSkLjku3Yf-1" source="OHCb3kpunpdSkLjku3Yf-11" target="OHCb3kpunpdSkLjku3Yf-20">
          <mxGeometry relative="1" as="geometry">
            <mxPoint x="392" y="220" as="sourcePoint" />
          </mxGeometry>
        </mxCell>
        <mxCell id="OHCb3kpunpdSkLjku3Yf-3" value="si" style="edgeLabel;html=1;align=center;verticalAlign=middle;resizable=0;points=[];" vertex="1" connectable="0" parent="OHCb3kpunpdSkLjku3Yf-2">
          <mxGeometry x="-0.7201" y="-1" relative="1" as="geometry">
            <mxPoint as="offset" />
          </mxGeometry>
        </mxCell>
        <mxCell id="OHCb3kpunpdSkLjku3Yf-4" value="no&amp;nbsp;" style="edgeStyle=orthogonalEdgeStyle;rounded=0;orthogonalLoop=1;jettySize=auto;html=1;entryX=0;entryY=0.5;entryDx=0;entryDy=0;fillColor=#FF0000;strokeColor=light-dark(#ff0000, #ededed);exitX=0;exitY=0.5;exitDx=0;exitDy=0;" edge="1" parent="OHCb3kpunpdSkLjku3Yf-1" source="OHCb3kpunpdSkLjku3Yf-11" target="OHCb3kpunpdSkLjku3Yf-19">
          <mxGeometry relative="1" as="geometry">
            <mxPoint x="790" y="890" as="targetPoint" />
            <Array as="points">
              <mxPoint x="56" y="123" />
              <mxPoint x="56" y="640" />
              <mxPoint x="580" y="640" />
              <mxPoint x="580" y="650" />
              <mxPoint x="776" y="650" />
            </Array>
          </mxGeometry>
        </mxCell>
        <mxCell id="OHCb3kpunpdSkLjku3Yf-5" style="edgeStyle=orthogonalEdgeStyle;rounded=0;orthogonalLoop=1;jettySize=auto;html=1;entryX=0.6;entryY=0.076;entryDx=0;entryDy=0;entryPerimeter=0;strokeColor=#FF0000;" edge="1" parent="OHCb3kpunpdSkLjku3Yf-1" source="OHCb3kpunpdSkLjku3Yf-20" target="OHCb3kpunpdSkLjku3Yf-12">
          <mxGeometry relative="1" as="geometry">
            <mxPoint x="574.4000000000001" y="328.75" as="targetPoint" />
          </mxGeometry>
        </mxCell>
        <mxCell id="OHCb3kpunpdSkLjku3Yf-6" style="edgeStyle=orthogonalEdgeStyle;rounded=0;orthogonalLoop=1;jettySize=auto;html=1;entryX=0.5;entryY=0;entryDx=0;entryDy=0;strokeColor=#FF0000;" edge="1" parent="OHCb3kpunpdSkLjku3Yf-1" source="OHCb3kpunpdSkLjku3Yf-12" target="OHCb3kpunpdSkLjku3Yf-21">
          <mxGeometry relative="1" as="geometry">
            <mxPoint x="750" y="320" as="targetPoint" />
          </mxGeometry>
        </mxCell>
        <mxCell id="OHCb3kpunpdSkLjku3Yf-8" value="Usuario" style="swimlane;startSize=20;" vertex="1" parent="OHCb3kpunpdSkLjku3Yf-1">
          <mxGeometry x="20" width="486" height="710" as="geometry" />
        </mxCell>
        <mxCell id="OHCb3kpunpdSkLjku3Yf-9" style="edgeStyle=orthogonalEdgeStyle;rounded=0;orthogonalLoop=1;jettySize=auto;html=1;entryX=0.5;entryY=0;entryDx=0;entryDy=0;" edge="1" parent="OHCb3kpunpdSkLjku3Yf-8" source="OHCb3kpunpdSkLjku3Yf-10" target="OHCb3kpunpdSkLjku3Yf-11">
          <mxGeometry relative="1" as="geometry" />
        </mxCell>
        <mxCell id="OHCb3kpunpdSkLjku3Yf-10" value="" style="ellipse;html=1;shape=startState;fillColor=#000000;strokeColor=#ff0000;fillStyle=auto;" vertex="1" parent="OHCb3kpunpdSkLjku3Yf-8">
          <mxGeometry x="180" y="30" width="30" height="30" as="geometry" />
        </mxCell>
        <mxCell id="OHCb3kpunpdSkLjku3Yf-11" value="Pulsar el aparatado de &quot;Contrato&quot;" style="rhombus;whiteSpace=wrap;html=1;fontColor=#000000;fillColor=#ffffc0;strokeColor=#ff0000;" vertex="1" parent="OHCb3kpunpdSkLjku3Yf-8">
          <mxGeometry x="137" y="80" width="116" height="86" as="geometry" />
        </mxCell>
        <mxCell id="OHCb3kpunpdSkLjku3Yf-12" value="Pulsa &quot;Cargar contrato&quot;" style="rounded=1;whiteSpace=wrap;html=1;arcSize=40;fontColor=#000000;fillColor=#ffffc0;strokeColor=#ff0000;" vertex="1" parent="OHCb3kpunpdSkLjku3Yf-8">
          <mxGeometry x="90" y="270" width="120" height="50" as="geometry" />
        </mxCell>
        <mxCell id="OHCb3kpunpdSkLjku3Yf-13" value="Pulsa &quot;Añade contrato en PDF &quot;" style="rounded=1;whiteSpace=wrap;html=1;fillColor=#ffffc0;strokeColor=#ff0000;fontColor=#000000;arcSize=40;" vertex="1" parent="OHCb3kpunpdSkLjku3Yf-8">
          <mxGeometry x="100" y="440" width="120" height="60" as="geometry" />
        </mxCell>
        <mxCell id="OHCb3kpunpdSkLjku3Yf-16" style="edgeStyle=orthogonalEdgeStyle;rounded=0;orthogonalLoop=1;jettySize=auto;html=1;strokeColor=#FF0000;entryX=0;entryY=0.5;entryDx=0;entryDy=0;" edge="1" parent="OHCb3kpunpdSkLjku3Yf-1" source="OHCb3kpunpdSkLjku3Yf-13" target="OHCb3kpunpdSkLjku3Yf-15">
          <mxGeometry relative="1" as="geometry">
            <mxPoint x="480" y="500" as="targetPoint" />
            <Array as="points" />
          </mxGeometry>
        </mxCell>
        <mxCell id="OHCb3kpunpdSkLjku3Yf-28" value="si&amp;nbsp;" style="edgeStyle=orthogonalEdgeStyle;rounded=0;orthogonalLoop=1;jettySize=auto;html=1;entryX=0.25;entryY=0;entryDx=0;entryDy=0;strokeColor=#FF0000;" edge="1" parent="OHCb3kpunpdSkLjku3Yf-1" source="OHCb3kpunpdSkLjku3Yf-17" target="OHCb3kpunpdSkLjku3Yf-13">
          <mxGeometry relative="1" as="geometry" />
        </mxCell>
        <mxCell id="OHCb3kpunpdSkLjku3Yf-18" value="Sistema" style="swimlane;startSize=20;" vertex="1" parent="OHCb3kpunpdSkLjku3Yf-1">
          <mxGeometry x="506" width="444" height="710" as="geometry" />
        </mxCell>
        <mxCell id="OHCb3kpunpdSkLjku3Yf-19" value="" style="ellipse;html=1;shape=endState;fillColor=#000000;strokeColor=#ff0000;" vertex="1" parent="OHCb3kpunpdSkLjku3Yf-18">
          <mxGeometry x="270" y="650" width="30" height="30" as="geometry" />
        </mxCell>
        <mxCell id="OHCb3kpunpdSkLjku3Yf-20" value="Lo redirige al apartado&amp;nbsp;" style="rounded=1;whiteSpace=wrap;html=1;arcSize=40;fontColor=#000000;fillColor=#ffffc0;strokeColor=#ff0000;" vertex="1" parent="OHCb3kpunpdSkLjku3Yf-18">
          <mxGeometry x="230" y="208" width="120" height="50" as="geometry" />
        </mxCell>
        <mxCell id="OHCb3kpunpdSkLjku3Yf-21" value="Muestra los archivo del dispositivo&amp;nbsp;" style="rounded=1;whiteSpace=wrap;html=1;fillColor=#ffffc0;strokeColor=#ff0000;fontColor=#000000;arcSize=40;" vertex="1" parent="OHCb3kpunpdSkLjku3Yf-18">
          <mxGeometry x="240" y="330" width="120" height="60" as="geometry" />
        </mxCell>
        <mxCell id="OHCb3kpunpdSkLjku3Yf-32" style="edgeStyle=orthogonalEdgeStyle;rounded=0;orthogonalLoop=1;jettySize=auto;html=1;entryX=0.5;entryY=0;entryDx=0;entryDy=0;" edge="1" parent="OHCb3kpunpdSkLjku3Yf-18" source="OHCb3kpunpdSkLjku3Yf-15" target="OHCb3kpunpdSkLjku3Yf-19">
          <mxGeometry relative="1" as="geometry" />
        </mxCell>
        <mxCell id="OHCb3kpunpdSkLjku3Yf-15" value="Cagar el archivo&amp;nbsp; en el sistema." style="rounded=1;whiteSpace=wrap;html=1;fillColor=#ffffc0;strokeColor=#ff0000;fontColor=#000000;arcSize=40;" vertex="1" parent="OHCb3kpunpdSkLjku3Yf-18">
          <mxGeometry x="110" y="540" width="120" height="60" as="geometry" />
        </mxCell>
        <mxCell id="OHCb3kpunpdSkLjku3Yf-17" value="¿Archivo en PDF?" style="rhombus;whiteSpace=wrap;html=1;fontColor=#000000;fillColor=#ffffc0;strokeColor=#ff0000;" vertex="1" parent="OHCb3kpunpdSkLjku3Yf-18">
          <mxGeometry y="317" width="116" height="86" as="geometry" />
        </mxCell>
        <mxCell id="OHCb3kpunpdSkLjku3Yf-7" style="edgeStyle=orthogonalEdgeStyle;rounded=0;orthogonalLoop=1;jettySize=auto;html=1;entryX=0.966;entryY=0.593;entryDx=0;entryDy=0;entryPerimeter=0;strokeColor=#FF0000;exitX=0;exitY=0.5;exitDx=0;exitDy=0;" edge="1" parent="OHCb3kpunpdSkLjku3Yf-18" source="OHCb3kpunpdSkLjku3Yf-21" target="OHCb3kpunpdSkLjku3Yf-17">
          <mxGeometry relative="1" as="geometry">
            <Array as="points">
              <mxPoint x="240" y="368" />
            </Array>
          </mxGeometry>
        </mxCell>
        <mxCell id="OHCb3kpunpdSkLjku3Yf-29" value="no&amp;nbsp;" style="edgeStyle=orthogonalEdgeStyle;rounded=0;orthogonalLoop=1;jettySize=auto;html=1;entryX=0.575;entryY=1;entryDx=0;entryDy=0;entryPerimeter=0;strokeColor=light-dark(#ff0000, #ededed);" edge="1" parent="OHCb3kpunpdSkLjku3Yf-18" source="OHCb3kpunpdSkLjku3Yf-17" target="OHCb3kpunpdSkLjku3Yf-21">
          <mxGeometry relative="1" as="geometry">
            <Array as="points">
              <mxPoint x="58" y="500" />
              <mxPoint x="309" y="500" />
            </Array>
          </mxGeometry>
        </mxCell>
      </root>
    </mxGraphModel>
  </diagram>
</mxfile>
